<svg width="48" height="48" viewBox="0 0 48 48" fill="none" xmlns="http://www.w3.org/2000/svg">
<rect width="48" height="48" fill="white"/>
<rect x="4" y="7.8418" width="10.7402" height="4.40173" fill="black"/>
<rect x="19.1411" y="7.8418" width="10.7402" height="4.40173" fill="black"/>
<rect x="4" y="15.2373" width="4.22566" height="4.22566" fill="black"/>
<rect x="38.6851" y="37.7744" width="4.22566" height="4.22566" fill="black"/>
<rect x="16.9678" y="29.5244" width="4.26616" height="4.26616" transform="rotate(45 16.9678 29.5244)" fill="black"/>
<rect x="40.8677" y="7" width="4.26616" height="4.26616" transform="rotate(45 40.8677 7)" fill="black"/>
<rect x="4" y="27.0342" width="4.22566" height="4.40173" fill="black"/>
<rect x="4" y="22.8086" width="10.7402" height="4.22566" fill="black"/>
<rect x="19.1411" y="22.8086" width="10.7402" height="4.22566" fill="black"/>
<rect x="19.1411" y="37.7744" width="10.7402" height="4.22566" fill="black"/>
<rect x="4" y="37.7744" width="10.7402" height="4.22566" fill="black"/>
<rect x="19.1411" y="12.2461" width="10.7402" height="4.40173" transform="rotate(90 19.1411 12.2461)" fill="black"/>
<rect x="34.1074" y="12.2461" width="10.7402" height="4.22566" transform="rotate(90 34.1074 12.2461)" fill="black"/>
<rect x="43.0874" y="15.415" width="17.9591" height="4.40173" transform="rotate(90 43.0874 15.415)" fill="black"/>
<rect x="34.1074" y="27.0342" width="10.9163" height="4.22566" transform="rotate(90 34.1074 27.0342)" fill="black"/>
<rect x="4" y="29.5879" width="4.2594" height="9.68045" fill="black"/>
</svg>
